<?xml version="1.0" encoding="UTF-8" standalone="no"?><svg xmlns="http://www.w3.org/2000/svg" xmlns:xlink="http://www.w3.org/1999/xlink" fill="#000000" height="84.5" preserveAspectRatio="xMidYMid meet" version="1" viewBox="14.9 7.8 470.3 84.5" width="470.3" zoomAndPan="magnify"><g id="change1_1"><path d="M14.86 92.24L14.86 81.65 47.8 50 14.86 18.35 14.86 7.76 58.83 50z" fill="#c6c3bd"/></g><g id="change1_2"><path d="M62.23 92.24L62.23 81.65 95.17 50 62.23 18.35 62.23 7.76 106.2 50z" fill="#c6c3bd"/></g><g id="change1_3"><path d="M109.59 92.24L109.59 81.65 142.54 50 109.59 18.35 109.59 7.76 153.56 50z" fill="#c6c3bd"/></g><g id="change1_4"><path d="M156.96 92.24L156.96 81.65 189.91 50 156.96 18.35 156.96 7.76 200.93 50z" fill="#c6c3bd"/></g><g id="change1_5"><path d="M204.33 92.24L204.33 81.65 237.28 50 204.33 18.35 204.33 7.76 248.3 50z" fill="#c6c3bd"/></g><g id="change1_6"><path d="M251.7 92.24L251.7 81.65 284.65 50 251.7 18.35 251.7 7.76 295.67 50z" fill="#c6c3bd"/></g><g id="change1_7"><path d="M299.07 92.24L299.07 81.65 332.01 50 299.07 18.35 299.07 7.76 343.04 50z" fill="#c6c3bd"/></g><g id="change1_8"><path d="M346.44 92.24L346.44 81.65 379.38 50 346.44 18.35 346.44 7.76 390.41 50z" fill="#c6c3bd"/></g><g id="change1_9"><path d="M393.8 92.24L393.8 81.65 426.75 50 393.8 18.35 393.8 7.76 437.77 50z" fill="#c6c3bd"/></g><g id="change1_10"><path d="M441.17 92.24L441.17 81.65 474.12 50 441.17 18.35 441.17 7.76 485.14 50z" fill="#c6c3bd"/></g></svg>